<?xml version="1.0" encoding="UTF-8"?> <!-- Generator: Adobe Illustrator 21.0.2, SVG Export Plug-In . SVG Version: 6.00 Build 0) --> <svg xmlns="http://www.w3.org/2000/svg" xmlns:xlink="http://www.w3.org/1999/xlink" id="Layer_1" x="0px" y="0px" viewBox="0 0 141.9 106.7" style="enable-background:new 0 0 141.9 106.7;" xml:space="preserve"> <style type="text/css"> .st0{fill:none;stroke:#246880;stroke-miterlimit:10;} .st1{fill:#FFFFFF;stroke:#246880;stroke-miterlimit:10;} </style> <path class="st0" d="M117.7,78.3c0-23.4-19-42.4-42.4-42.4S33,54.9,33,78.3H117.7z"></path> <path class="st1" d="M3.7,87.5c0-19.9,16.1-36,36-36s36,16.1,36,36H3.7z"></path> <path class="st1" d="M58,33.2c0,10.1-8.2,18.3-18.3,18.3s-18.3-8.2-18.3-18.3H58z"></path> <path class="st1" d="M83.9,96.7c0-15,12.2-27.2,27.2-27.2s27.2,12.2,27.2,27.2H83.9z"></path> <path class="st1" d="M125,55.4c0,7.7-6.2,13.9-13.9,13.9S97.3,63,97.3,55.4H125z"></path> <path class="st0" d="M100.4,11c0.1,13.6-10.8,24.8-24.4,24.9S51.1,25.1,51,11.5L100.4,11z"></path> </svg> 